<mxfile host="65bd71144e">
    <diagram id="AxyqyRmUhzYA6B7SG2dw" name="Page-1">
        <mxGraphModel dx="200" dy="2137" grid="1" gridSize="10" guides="1" tooltips="1" connect="1" arrows="1" fold="1" page="1" pageScale="1" pageWidth="827" pageHeight="1169" math="0" shadow="0">
            <root>
                <mxCell id="0"/>
                <mxCell id="1" parent="0"/>
                <mxCell id="2" value="Plan" style="swimlane;whiteSpace=wrap;html=1;" parent="1" vertex="1">
                    <mxGeometry x="140" y="10" width="930" height="630" as="geometry"/>
                </mxCell>
                <mxCell id="3" value="Contexte" style="swimlane;whiteSpace=wrap;html=1;" parent="2" vertex="1">
                    <mxGeometry x="30" y="240" width="330" height="355" as="geometry"/>
                </mxCell>
                <mxCell id="4" value="Slide 1: &lt;br&gt;- Fabrication du combustible nucléaire --&amp;gt; mettre le cycle encadrer la partie broyage&lt;br&gt;- Etape de broyage et mélange --&amp;gt; Broyeur à boulets mettre (vite)" style="rounded=0;whiteSpace=wrap;html=1;" parent="3" vertex="1">
                    <mxGeometry x="10" y="40" width="290" height="110" as="geometry"/>
                </mxCell>
                <mxCell id="15" value="Slide 2: Objectifs scientifique&lt;br&gt;Expliquer les objectifs&lt;br&gt;Mettre des images des simulations&lt;br&gt;Mettre des images des observations&lt;br&gt;--&amp;gt; mettre à jour une simulation lagrangienne&amp;nbsp;" style="rounded=0;whiteSpace=wrap;html=1;" parent="3" vertex="1">
                    <mxGeometry x="20" y="170" width="290" height="110" as="geometry"/>
                </mxCell>
                <mxCell id="6" value="Presentation" style="swimlane;whiteSpace=wrap;html=1;" parent="2" vertex="1">
                    <mxGeometry x="30" y="30" width="350" height="190" as="geometry"/>
                </mxCell>
                <mxCell id="17" value="Evoquer l'organisation de la thèse&lt;br&gt;- départ d'un encadrant&lt;br&gt;- Déménagement à Palaiseau&lt;br&gt;- Réorientation du sujet&lt;br&gt;Extension jusqu'en fin d'année" style="whiteSpace=wrap;html=1;" parent="6" vertex="1">
                    <mxGeometry x="10" y="30" width="330" height="140" as="geometry"/>
                </mxCell>
                <mxCell id="23" value="Formations" style="rounded=0;whiteSpace=wrap;html=1;" parent="2" vertex="1">
                    <mxGeometry x="450" y="30" width="440" height="50" as="geometry"/>
                </mxCell>
                <mxCell id="5" value="Indications:&lt;br&gt;- 5 slides about my work&lt;br&gt;- 1 formation suivi&lt;br&gt;- Presenting myself&amp;nbsp;&lt;br&gt;- Présentation conférence&lt;br&gt;- Publications&lt;br&gt;- 1er papier - en relecture&lt;br&gt;2eme - en cours de rédaction&lt;br&gt;- Fin de thèse:&lt;br&gt;- Finaliser dernier travaux et rédiger&lt;br&gt;- Rédaction du manuscrit&lt;br&gt;Etat de l'Art + première partie + ajouts ?&lt;br&gt;+ partie 2, calculs tournent et finalisation des résultats&lt;br&gt;Objectif: soutenance fin de thèse&lt;br&gt;Evoquer le départ de mon encadrant&lt;br&gt;Faire une&amp;nbsp;" style="rounded=0;whiteSpace=wrap;html=1;" parent="1" vertex="1">
                    <mxGeometry x="180" y="-320" width="660" height="300" as="geometry"/>
                </mxCell>
            </root>
        </mxGraphModel>
    </diagram>
    <diagram id="EtiuOBhCY414SyzP5pMX" name="Page-2">
        <mxGraphModel dx="100" dy="484" grid="1" gridSize="10" guides="1" tooltips="1" connect="1" arrows="1" fold="1" page="1" pageScale="1" pageWidth="827" pageHeight="1169" math="0" shadow="0">
            <root>
                <mxCell id="0"/>
                <mxCell id="1" parent="0"/>
                <mxCell id="yzufJBFCFFVFq7_pkVNJ-1" value="" style="ellipse;whiteSpace=wrap;html=1;rounded=1;" vertex="1" parent="1">
                    <mxGeometry x="110" y="340" width="310" height="70" as="geometry"/>
                </mxCell>
                <mxCell id="yzufJBFCFFVFq7_pkVNJ-9" value="" style="endArrow=none;dashed=1;html=1;dashPattern=1 3;strokeWidth=2;rounded=1;curved=1;exitX=1;exitY=0;exitDx=0;exitDy=0;" edge="1" parent="1" source="yzufJBFCFFVFq7_pkVNJ-11">
                    <mxGeometry width="50" height="50" relative="1" as="geometry">
                        <mxPoint x="265" y="290" as="sourcePoint"/>
                        <mxPoint x="260" y="170" as="targetPoint"/>
                    </mxGeometry>
                </mxCell>
                <mxCell id="yzufJBFCFFVFq7_pkVNJ-11" value="" style="ellipse;whiteSpace=wrap;html=1;aspect=fixed;rounded=1;fillColor=#000000;" vertex="1" parent="1">
                    <mxGeometry x="260" y="370" width="10" height="10" as="geometry"/>
                </mxCell>
                <mxCell id="yzufJBFCFFVFq7_pkVNJ-12" value="" style="group" vertex="1" connectable="0" parent="1">
                    <mxGeometry x="220" y="170" width="80" height="70" as="geometry"/>
                </mxCell>
                <mxCell id="yzufJBFCFFVFq7_pkVNJ-5" value="" style="endArrow=none;html=1;curved=1;exitX=0.104;exitY=0.189;exitDx=0;exitDy=0;exitPerimeter=0;" edge="1" parent="yzufJBFCFFVFq7_pkVNJ-12" source="yzufJBFCFFVFq7_pkVNJ-1">
                    <mxGeometry width="50" height="50" relative="1" as="geometry">
                        <mxPoint x="-20.000000000000014" y="270" as="sourcePoint"/>
                        <mxPoint x="40.00000000000003" as="targetPoint"/>
                        <Array as="points">
                            <mxPoint x="-10" y="140"/>
                            <mxPoint y="70"/>
                            <mxPoint x="20.000000000000014"/>
                        </Array>
                    </mxGeometry>
                </mxCell>
                <mxCell id="yzufJBFCFFVFq7_pkVNJ-8" value="" style="endArrow=none;html=1;curved=1;exitX=0.913;exitY=0.217;exitDx=0;exitDy=0;exitPerimeter=0;verticalAlign=top;" edge="1" parent="yzufJBFCFFVFq7_pkVNJ-12" source="yzufJBFCFFVFq7_pkVNJ-1">
                    <mxGeometry width="50" height="50" relative="1" as="geometry">
                        <mxPoint x="102.32000000000006" y="101.34000000000003" as="sourcePoint"/>
                        <mxPoint x="40.00000000000003" as="targetPoint"/>
                        <Array as="points">
                            <mxPoint x="120" y="160"/>
                            <mxPoint x="80" y="80"/>
                            <mxPoint x="60.00000000000004"/>
                        </Array>
                    </mxGeometry>
                </mxCell>
            </root>
        </mxGraphModel>
    </diagram>
</mxfile>